<svg xmlns="http://www.w3.org/2000/svg" width="1455.787" height="1429.146" viewBox="0 0 1455.787 1429.146">
  <g id="Group_3" data-name="Group 3" transform="translate(-5949.969 5212.14)">
    <g id="Waimakariri" transform="translate(5949.969 -5481.828)">
      <path id="Shape" d="M374.72,749.022c206.449,12.566,356.022-148,373.808-372.746S581.169-27.631,374.72,3.533,16.341,162.563.911,376.278,168.271,736.458,374.72,749.022Z" transform="matrix(0.777, 0.629, -0.629, 0.777, 517.057, 373.746)" fill="#eff3f0"/>
      <path id="Shape-2" data-name="Shape" d="M183.1,364.737c105.064,0,181.814-81.4,181.814-181.814S275.819-11.307,183.1,1.109-12.71,73.149,1.283,182.923,78.033,364.737,183.1,364.737Z" transform="matrix(0.777, 0.629, -0.629, 0.777, 229.536, 269.688)" fill="#e0436b"/>
      <path id="Shape-3" data-name="Shape" d="M58.074,115.74c33.323,0,57.666-25.831,57.666-57.7S87.482-3.588,58.074.352-4.032,23.212.407,58.043,24.75,115.74,58.074,115.74Z" transform="matrix(0.777, 0.629, -0.629, 0.777, 420.543, 1138.293)" fill="#e0436b"/>
      <path id="Shape-4" data-name="Shape" d="M38.138,76.008c21.883,0,37.87-16.964,37.87-37.888S57.451-2.357,38.138.231-2.647,15.244.267,38.119,16.254,76.008,38.138,76.008Z" transform="matrix(0.777, 0.629, -0.629, 0.777, 62.443, 342.242)" fill="#e0436b"/>
      <path id="Shape-5" data-name="Shape" d="M19.005,37.989c10.47.638,18.057-7.506,18.958-18.9S29.476-1.4,19.005.179.829,8.245.046,19.084,8.535,37.352,19.005,37.989Z" transform="translate(541.421 1214.632) rotate(155.997)" fill="#e0436b"/>
      <path id="Shape-6" data-name="Shape" d="M96.21,191.747c55.208,0,95.537-42.793,95.537-95.582S144.933-5.944,96.21.583-6.679,38.456.674,96.166,41,191.747,96.21,191.747Z" transform="matrix(0.777, 0.629, -0.629, 0.777, 1124.905, 295.399)" fill="#7252a4"/>
      <path id="Shape-7" data-name="Shape" d="M38.138,76.008c21.883,0,37.87-16.964,37.87-37.888S57.451-2.357,38.138.231-2.647,15.244.267,38.119,16.254,76.008,38.138,76.008Z" transform="matrix(0.777, 0.629, -0.629, 0.777, 461.483, 587.539)" fill="#7252a4"/>
      <path id="Shape-8" data-name="Shape" d="M17.335,34.549A16.943,16.943,0,0,0,34.549,17.327c0-9.511-8.435-18.4-17.214-17.222S-1.2,6.929.121,17.327,7.388,34.549,17.335,34.549Z" transform="matrix(0.777, 0.629, -0.629, 0.777, 527.599, 636.561)" fill="#7252a4"/>
      <path id="Shape-9" data-name="Shape" d="M96.156,177.926c36.168,0,58.1-54.393,63.178-98.223S126.3-4.139,79.667.344,0,35.874,0,79.7,59.987,177.926,96.156,177.926Z" transform="matrix(0.777, 0.629, -0.629, 0.777, 838.876, 1216.872)" fill="#7252a4"/>
      <path id="Shape-10" data-name="Shape" d="M152.819,305.472c84.194,5.125,145.192-60.36,152.448-152.016S237.013-11.269,152.819,1.441,6.664,66.3.372,153.457,68.625,300.348,152.819,305.472Z" transform="matrix(0.777, 0.629, -0.629, 0.777, 375.401, 707.547)" fill="#f0c933"/>
      <path id="Shape-11" data-name="Shape" d="M57.849,115.633c31.871,1.94,54.961-22.848,57.708-57.544S89.719-4.266,57.849.546,2.523,25.1.141,58.089,25.977,113.693,57.849,115.633Z" transform="matrix(0.777, 0.629, -0.629, 0.777, 1256.626, 877.45)" fill="#f0c933"/>
      <path id="Shape-12" data-name="Shape" d="M19,37.97c10.465.637,18.048-7.5,18.948-18.895S29.46-1.4,19,.179.829,8.241.046,19.074,8.531,37.332,19,37.97Z" transform="matrix(0.777, 0.629, -0.629, 0.777, 507.478, 1040.08)" fill="#f0c933"/>
      <path id="Shape-13" data-name="Shape" d="M19,37.97c10.465.637,18.048-7.5,18.948-18.895S29.46-1.4,19,.179.829,8.241.046,19.074,8.531,37.332,19,37.97Z" transform="matrix(0.777, 0.629, -0.629, 0.777, 1297.784, 1013.305)" fill="#f0c933"/>
      <path id="Shape-14" data-name="Shape" d="M9.5,18.987c5.232.319,9.023-3.751,9.474-9.447S14.73-.7,9.5.089.414,4.123.023,9.54,4.265,18.669,9.5,18.987Z" transform="matrix(0.777, 0.629, -0.629, 0.777, 532.205, 1013.71)" fill="#f0c933"/>
      <path id="Shape-15" data-name="Shape" d="M57.849,115.633c31.871,1.94,54.961-22.848,57.708-57.544S89.719-4.266,57.849.546,2.523,25.1.141,58.089,25.977,113.693,57.849,115.633Z" transform="matrix(0.777, 0.629, -0.629, 0.777, 785.034, 684.839)" fill="#453264"/>
      <path id="Shape-16" data-name="Shape" d="M19,37.97c10.465.637,18.048-7.5,18.948-18.895S29.46-1.4,19,.179.829,8.241.046,19.074,8.531,37.332,19,37.97Z" transform="matrix(0.777, 0.629, -0.629, 0.777, 1205.366, 1148.909)" fill="#453264"/>
      <path id="Shape-17" data-name="Shape" d="M19,37.97c10.465.637,18.047-7.5,18.948-18.895S29.46-1.4,19,.179.829,8.241.046,19.074,8.531,37.332,19,37.97Z" transform="matrix(-0.454, 0.891, -0.891, -0.454, 786.324, 839.116)" fill="#453264"/>
      <path id="Shape-18" data-name="Shape" d="M57.849,115.633c31.871,1.94,54.961-22.848,57.708-57.544S89.719-4.266,57.849.546,2.523,25.1.141,58.089,25.977,113.693,57.849,115.633Z" transform="matrix(0.777, 0.629, -0.629, 0.777, 1361.137, 531.96)" fill="#0f90d1"/>
      <path id="Shape-19" data-name="Shape" d="M177.005,0c96.121,0,158.639,77.131,174.041,174.041s0,210.081,0,302.3S279.282,650.385,177.005,650.385-7.305,568.749,2.965,476.345s-10.27-202.563,0-302.3S80.886,0,177.005,0Z" transform="matrix(0.777, 0.629, -0.629, 0.777, 1151.755, 536.067)" fill="#0f90d1"/>
      <path id="Shape-20" data-name="Shape" d="M78.139,156.191c43.05,2.621,74.24-30.863,77.949-77.727S121.188-5.762,78.139.737,3.407,33.9.19,78.463,35.089,153.57,78.139,156.191Z" transform="matrix(0.777, 0.629, -0.629, 0.777, 951.755, 458.067)" fill="#c4c8d4"/>
      <path id="Shape-21" data-name="Shape" d="M214.128,428.013C332.1,435.195,417.569,343.44,427.733,215.019S332.1-15.789,214.128,2.019,9.341,92.893.521,215.016,96.158,420.832,214.128,428.013Z" transform="matrix(0.777, 0.629, -0.629, 0.777, 1122.849, 1096.292)" fill="#c4c8d4"/>
      <path id="Shape-22" data-name="Shape" d="M28.633,56.715c15.056-2.732,28.373-12.7,28.373-28.358A28.366,28.366,0,0,0,28.633,0C12.963,0,2.742,14.319.259,28.357S13.577,59.448,28.633,56.715Z" transform="matrix(0.777, 0.629, -0.629, 0.777, 1256.649, 481.709)" fill="#eff3f0"/>
      <path id="Shape-23" data-name="Shape" d="M17.353,34.376c9.124-1.66,17.2-7.7,17.2-17.188A17.188,17.188,0,0,0,17.353,0C7.86,0,1.662,8.678.157,17.188S8.229,36.029,17.353,34.376Z" transform="matrix(0.777, 0.629, -0.629, 0.777, 1015.67, 355.605)" fill="#eff3f0"/>
    </g>
  </g>
</svg>
