<svg xmlns="http://www.w3.org/2000/svg" width="87" height="103" viewBox="0 0 87 103">
  <g id="Group_1" data-name="Group 1" transform="translate(-31 -29)">
    <circle id="Ellipse_276" data-name="Ellipse 276" cx="6" cy="6" r="6" transform="translate(46 59)" fill="#e6e9f3"/>
    <circle id="Ellipse_277" data-name="Ellipse 277" cx="6" cy="6" r="6" transform="translate(61 59)" fill="#e6e9f3"/>
    <circle id="Ellipse_278" data-name="Ellipse 278" cx="6" cy="6" r="6" transform="translate(46 74)" fill="#e6e9f3"/>
    <ellipse id="Ellipse_280" data-name="Ellipse 280" cx="6" cy="5.5" rx="6" ry="5.5" transform="translate(46 90)" fill="#e6e9f3"/>
    <ellipse id="Ellipse_281" data-name="Ellipse 281" cx="6" cy="5.5" rx="6" ry="5.5" transform="translate(61 90)" fill="#e6e9f3"/>
    <ellipse id="Ellipse_282" data-name="Ellipse 282" cx="6" cy="5.5" rx="6" ry="5.5" transform="translate(46 105)" fill="#e6e9f3"/>
    <ellipse id="Ellipse_283" data-name="Ellipse 283" cx="6" cy="5.5" rx="6" ry="5.5" transform="translate(61 105)" fill="#e6e9f3"/>
    <ellipse id="Ellipse_285" data-name="Ellipse 285" cx="5.5" cy="6" rx="5.5" ry="6" transform="translate(92 59)" fill="#e6e9f3"/>
    <circle id="Ellipse_286" data-name="Ellipse 286" cx="6" cy="6" r="6" transform="translate(76 74)" fill="#e6e9f3"/>
    <ellipse id="Ellipse_287" data-name="Ellipse 287" cx="5.5" cy="6" rx="5.5" ry="6" transform="translate(92 74)" fill="#e6e9f3"/>
    <circle id="Ellipse_289" data-name="Ellipse 289" cx="5.5" cy="5.5" r="5.5" transform="translate(92 90)" fill="#e6e9f3"/>
    <ellipse id="Ellipse_290" data-name="Ellipse 290" cx="6" cy="5.5" rx="6" ry="5.5" transform="translate(76 105)" fill="#e6e9f3"/>
    <circle id="Ellipse_292" data-name="Ellipse 292" cx="6" cy="6" r="6" transform="translate(46 44)" fill="#e6e9f3"/>
    <circle id="Ellipse_293" data-name="Ellipse 293" cx="6" cy="6" r="6" transform="translate(61 44)" fill="#e6e9f3"/>
    <circle id="Ellipse_294" data-name="Ellipse 294" cx="6" cy="6" r="6" transform="translate(76 44)" fill="#e6e9f3"/>
    <g id="Group_2" data-name="Group 2">
      <circle id="Ellipse_279" data-name="Ellipse 279" cx="6" cy="6" r="6" transform="translate(61 74)" fill="#6759ae"/>
      <circle id="Ellipse_284" data-name="Ellipse 284" cx="6" cy="6" r="6" transform="translate(76 59)" fill="#6759ae"/>
      <ellipse id="Ellipse_288" data-name="Ellipse 288" cx="6" cy="5.5" rx="6" ry="5.5" transform="translate(76 90)" fill="#6759ae"/>
      <circle id="Ellipse_291" data-name="Ellipse 291" cx="5.5" cy="5.5" r="5.5" transform="translate(92 105)" fill="#6759ae"/>
      <ellipse id="Ellipse_295" data-name="Ellipse 295" cx="5.5" cy="6" rx="5.5" ry="6" transform="translate(92 44)" fill="#6759ae"/>
      <circle id="Ellipse_296" data-name="Ellipse 296" cx="6" cy="6" r="6" transform="translate(46 59)" fill="#6759ae"/>
      <circle id="Ellipse_297" data-name="Ellipse 297" cx="6" cy="6" r="6" transform="translate(46 74)" fill="#6759ae"/>
      <ellipse id="Ellipse_298" data-name="Ellipse 298" cx="6" cy="5.5" rx="6" ry="5.5" transform="translate(46 90)" fill="#6759ae"/>
      <ellipse id="Ellipse_299" data-name="Ellipse 299" cx="6" cy="5.5" rx="6" ry="5.5" transform="translate(46 105)" fill="#6759ae"/>
      <circle id="Ellipse_300" data-name="Ellipse 300" cx="6" cy="6" r="6" transform="translate(46 44)" fill="#6759ae"/>
    </g>
    <ellipse id="Ellipse_301" data-name="Ellipse 301" cx="5.5" cy="6" rx="5.5" ry="6" transform="translate(107 59)" fill="#e6e9f3"/>
    <ellipse id="Ellipse_302" data-name="Ellipse 302" cx="5.5" cy="6" rx="5.5" ry="6" transform="translate(107 74)" fill="#e6e9f3"/>
    <circle id="Ellipse_303" data-name="Ellipse 303" cx="5.5" cy="5.5" r="5.5" transform="translate(107 90)" fill="#e6e9f3"/>
    <circle id="Ellipse_304" data-name="Ellipse 304" cx="5.5" cy="5.5" r="5.5" transform="translate(107 105)" fill="#e6e9f3"/>
    <ellipse id="Ellipse_305" data-name="Ellipse 305" cx="5.5" cy="6" rx="5.5" ry="6" transform="translate(107 44)" fill="#e6e9f3"/>
    <ellipse id="Ellipse_306" data-name="Ellipse 306" cx="5.5" cy="6" rx="5.5" ry="6" transform="translate(107 59)" fill="#e6e9f3"/>
    <ellipse id="Ellipse_307" data-name="Ellipse 307" cx="5.5" cy="6" rx="5.5" ry="6" transform="translate(107 74)" fill="#e6e9f3"/>
    <circle id="Ellipse_308" data-name="Ellipse 308" cx="5.5" cy="5.5" r="5.5" transform="translate(107 90)" fill="#e6e9f3"/>
    <circle id="Ellipse_309" data-name="Ellipse 309" cx="5.5" cy="5.5" r="5.5" transform="translate(107 105)" fill="#e6e9f3"/>
    <ellipse id="Ellipse_310" data-name="Ellipse 310" cx="5.5" cy="6" rx="5.5" ry="6" transform="translate(107 44)" fill="#e6e9f3"/>
    <circle id="Ellipse_311" data-name="Ellipse 311" cx="6" cy="6" r="6" transform="translate(31 59)" fill="#e6e9f3"/>
    <circle id="Ellipse_312" data-name="Ellipse 312" cx="6" cy="6" r="6" transform="translate(31 74)" fill="#e6e9f3"/>
    <ellipse id="Ellipse_313" data-name="Ellipse 313" cx="6" cy="5.5" rx="6" ry="5.5" transform="translate(31 90)" fill="#e6e9f3"/>
    <ellipse id="Ellipse_314" data-name="Ellipse 314" cx="6" cy="5.5" rx="6" ry="5.5" transform="translate(31 105)" fill="#e6e9f3"/>
    <circle id="Ellipse_315" data-name="Ellipse 315" cx="6" cy="6" r="6" transform="translate(31 44)" fill="#e6e9f3"/>
    <circle id="Ellipse_316" data-name="Ellipse 316" cx="6" cy="6" r="6" transform="translate(31 59)" fill="#e6e9f3"/>
    <circle id="Ellipse_317" data-name="Ellipse 317" cx="6" cy="6" r="6" transform="translate(31 74)" fill="#e6e9f3"/>
    <ellipse id="Ellipse_318" data-name="Ellipse 318" cx="6" cy="5.5" rx="6" ry="5.5" transform="translate(31 90)" fill="#e6e9f3"/>
    <ellipse id="Ellipse_319" data-name="Ellipse 319" cx="6" cy="5.5" rx="6" ry="5.5" transform="translate(31 105)" fill="#e6e9f3"/>
    <circle id="Ellipse_320" data-name="Ellipse 320" cx="6" cy="6" r="6" transform="translate(31 44)" fill="#e6e9f3"/>
    <ellipse id="Ellipse_321" data-name="Ellipse 321" cx="6" cy="5.5" rx="6" ry="5.5" transform="translate(103 120) rotate(90)" fill="#e6e9f3"/>
    <circle id="Ellipse_322" data-name="Ellipse 322" cx="6" cy="6" r="6" transform="translate(88 120) rotate(90)" fill="#e6e9f3"/>
    <circle id="Ellipse_323" data-name="Ellipse 323" cx="6" cy="6" r="6" transform="translate(73 120) rotate(90)" fill="#e6e9f3"/>
    <circle id="Ellipse_324" data-name="Ellipse 324" cx="6" cy="6" r="6" transform="translate(58 120) rotate(90)" fill="#e6e9f3"/>
    <ellipse id="Ellipse_325" data-name="Ellipse 325" cx="6" cy="5.5" rx="6" ry="5.5" transform="translate(118 120) rotate(90)" fill="#e6e9f3"/>
    <ellipse id="Ellipse_326" data-name="Ellipse 326" cx="6" cy="5.5" rx="6" ry="5.5" transform="translate(103 120) rotate(90)" fill="#e6e9f3"/>
    <circle id="Ellipse_327" data-name="Ellipse 327" cx="6" cy="6" r="6" transform="translate(88 120) rotate(90)" fill="#e6e9f3"/>
    <circle id="Ellipse_328" data-name="Ellipse 328" cx="6" cy="6" r="6" transform="translate(73 120) rotate(90)" fill="#e6e9f3"/>
    <circle id="Ellipse_329" data-name="Ellipse 329" cx="6" cy="6" r="6" transform="translate(58 120) rotate(90)" fill="#e6e9f3"/>
    <ellipse id="Ellipse_330" data-name="Ellipse 330" cx="6" cy="5.5" rx="6" ry="5.5" transform="translate(118 120) rotate(90)" fill="#e6e9f3"/>
    <circle id="Ellipse_331" data-name="Ellipse 331" cx="6" cy="6" r="6" transform="translate(31 120)" fill="#e6e9f3"/>
    <ellipse id="Ellipse_332" data-name="Ellipse 332" cx="6" cy="5.5" rx="6" ry="5.5" transform="translate(103 29) rotate(90)" fill="#e6e9f3"/>
    <circle id="Ellipse_333" data-name="Ellipse 333" cx="6" cy="6" r="6" transform="translate(88 29) rotate(90)" fill="#e6e9f3"/>
    <circle id="Ellipse_334" data-name="Ellipse 334" cx="6" cy="6" r="6" transform="translate(73 29) rotate(90)" fill="#e6e9f3"/>
    <circle id="Ellipse_335" data-name="Ellipse 335" cx="6" cy="6" r="6" transform="translate(58 29) rotate(90)" fill="#e6e9f3"/>
    <ellipse id="Ellipse_336" data-name="Ellipse 336" cx="6" cy="5.5" rx="6" ry="5.5" transform="translate(118 29) rotate(90)" fill="#e6e9f3"/>
    <ellipse id="Ellipse_337" data-name="Ellipse 337" cx="6" cy="5.5" rx="6" ry="5.5" transform="translate(103 29) rotate(90)" fill="#e6e9f3"/>
    <circle id="Ellipse_338" data-name="Ellipse 338" cx="6" cy="6" r="6" transform="translate(88 29) rotate(90)" fill="#e6e9f3"/>
    <circle id="Ellipse_339" data-name="Ellipse 339" cx="6" cy="6" r="6" transform="translate(73 29) rotate(90)" fill="#e6e9f3"/>
    <circle id="Ellipse_340" data-name="Ellipse 340" cx="6" cy="6" r="6" transform="translate(58 29) rotate(90)" fill="#e6e9f3"/>
    <ellipse id="Ellipse_341" data-name="Ellipse 341" cx="6" cy="5.5" rx="6" ry="5.5" transform="translate(118 29) rotate(90)" fill="#e6e9f3"/>
    <circle id="Ellipse_342" data-name="Ellipse 342" cx="6" cy="6" r="6" transform="translate(31 29)" fill="#e6e9f3"/>
  </g>
</svg>
