<svg xmlns="http://www.w3.org/2000/svg" width="284.511" height="90.105" viewBox="0 0 284.511 90.105">
  <g id="gql" transform="translate(-4.6 -11.772)">
    <path id="Path_1" data-name="Path 1" d="M111.756,35.819a13.043,13.043,0,0,0-4.022.587,7.608,7.608,0,0,0-3.091,1.818,8.957,8.957,0,0,0-2.06,3.19,14.917,14.917,0,0,0-.835,4.683q-.154,4.415,0,8.831a14.739,14.739,0,0,0,.835,4.683,9.526,9.526,0,0,0,2.06,3.239,8.419,8.419,0,0,0,3.091,1.818,14.092,14.092,0,0,0,4.022.54,13.28,13.28,0,0,0,4.022-.587,9.015,9.015,0,0,0,3.19-1.857,8.8,8.8,0,0,0,2.165-3.239,12.368,12.368,0,0,0,.785-4.611v-2.5H113.37a.964.964,0,0,1-1.08-1.1v-.689a.964.964,0,0,1,1.08-1.1h10.495a.974.974,0,0,1,1.1,1.1v4.316a15.855,15.855,0,0,1-.881,5.4,11.7,11.7,0,0,1-2.6,4.176,11.338,11.338,0,0,1-4.176,2.746,15.815,15.815,0,0,1-5.592.931,15.419,15.419,0,0,1-5.592-.931,11.783,11.783,0,0,1-4.071-2.7,11.964,11.964,0,0,1-2.5-4.071,17.913,17.913,0,0,1-.931-5.3q-.1-2.2-.1-4.661,0-2.479.1-4.661a16.536,16.536,0,0,1,.981-5.25,11.873,11.873,0,0,1,2.5-4.121,11.276,11.276,0,0,1,4.071-2.65,16.469,16.469,0,0,1,11.332.05,13.106,13.106,0,0,1,3.925,2.479,9.94,9.94,0,0,1,2.259,2.994,7.306,7.306,0,0,1,.785,2.6.849.849,0,0,1-.248.735,1.18,1.18,0,0,1-.785.248h-1.08a.893.893,0,0,1-.639-.193,3.048,3.048,0,0,1-.391-.785,10.646,10.646,0,0,0-1.1-2.2,7.144,7.144,0,0,0-1.857-1.961,9.831,9.831,0,0,0-2.8-1.424,12.143,12.143,0,0,0-3.829-.54Zm23.16,9.759q1.763-3.388,6.671-3.388H143.4a.954.954,0,0,1,1.08,1.08v.689a.954.954,0,0,1-1.08,1.08h-2.11a5.923,5.923,0,0,0-6.377,6.377v15.2a.982.982,0,0,1-.344.785,1.061,1.061,0,0,1-.785.295H133a.954.954,0,0,1-1.08-1.08v-23.3a1.061,1.061,0,0,1,.295-.785.982.982,0,0,1,.785-.344h.785a1.179,1.179,0,0,1,1.129,1.129v2.259Zm30.3,22.135a.954.954,0,0,1-1.08-1.08V64.328a7.325,7.325,0,0,1-1.176,1.377,6.971,6.971,0,0,1-1.716,1.226,10.581,10.581,0,0,1-2.479.881,12.657,12.657,0,0,1-3.333.391,10.676,10.676,0,0,1-3.388-.54,10.055,10.055,0,0,1-2.8-1.57,8.092,8.092,0,0,1-1.912-2.306,6.166,6.166,0,0,1-.689-2.892,6.406,6.406,0,0,1,.689-2.994,7.509,7.509,0,0,1,2.011-2.306,10.407,10.407,0,0,1,3.041-1.666,18.017,18.017,0,0,1,3.975-.981l7.751-1.08V50.154a5.283,5.283,0,0,0-1.62-4.121q-1.57-1.471-5.052-1.471a7.294,7.294,0,0,0-4.269,1.08,4.518,4.518,0,0,0-1.857,2.259,1.8,1.8,0,0,1-.49.835,1.1,1.1,0,0,1-.689.193h-.689a1.014,1.014,0,0,1-1.08-1.08,4.188,4.188,0,0,1,.49-1.716,6.608,6.608,0,0,1,1.57-2.011,9.432,9.432,0,0,1,2.845-1.666,10.589,10.589,0,0,1,4.176-.735,12.377,12.377,0,0,1,4.76.785,7.644,7.644,0,0,1,2.994,2.06,6.6,6.6,0,0,1,1.471,2.746,10.72,10.72,0,0,1,.441,2.994V66.639a.954.954,0,0,1-1.08,1.08H165.2Zm-9.272-2.355a9.057,9.057,0,0,0,3.14-.54,7.542,7.542,0,0,0,2.65-1.716,7.933,7.933,0,0,0,1.763-2.845,11.508,11.508,0,0,0,.639-4.022V54.569l-6.327.881q-8.142,1.1-8.142,5.2a3.971,3.971,0,0,0,.54,2.11,5.243,5.243,0,0,0,1.471,1.471,6.61,6.61,0,0,0,2.011.881,10.258,10.258,0,0,0,2.259.248ZM186.121,68.2a10.244,10.244,0,0,1-5.052-1.1,10.066,10.066,0,0,1-3.19-2.746V75.98a.954.954,0,0,1-1.08,1.08h-.835a.954.954,0,0,1-1.08-1.08V43.27a.954.954,0,0,1,1.08-1.08h.835a.954.954,0,0,1,1.08,1.08v2.306a9.675,9.675,0,0,1,3.19-2.746,11.932,11.932,0,0,1,9.858-.072,8.641,8.641,0,0,1,3.239,2.65,10.326,10.326,0,0,1,1.763,3.73,18.549,18.549,0,0,1,.689,4.22q.05.735.05,1.62t-.05,1.62a19,19,0,0,1-.689,4.269,10.94,10.94,0,0,1-1.763,3.73,9.281,9.281,0,0,1-3.239,2.65,10.672,10.672,0,0,1-4.807.981ZM177.88,53.192q-.05.735-.05,1.912t.05,1.912a12.234,12.234,0,0,0,.49,2.994,8.123,8.123,0,0,0,1.471,2.65,8.028,8.028,0,0,0,2.479,1.961,7.821,7.821,0,0,0,3.531.735,7.731,7.731,0,0,0,3.581-.735,6.335,6.335,0,0,0,2.355-1.961,8.066,8.066,0,0,0,1.322-2.892,17.155,17.155,0,0,0,.54-3.435q.05-1.377,0-2.746a16.436,16.436,0,0,0-.54-3.388,7.587,7.587,0,0,0-1.322-2.845,6.128,6.128,0,0,0-2.355-2.011,7.35,7.35,0,0,0-3.581-.785,7.521,7.521,0,0,0-3.581.785,7.805,7.805,0,0,0-2.479,2.06,9.188,9.188,0,0,0-1.424,2.746,12.332,12.332,0,0,0-.49,3.041Zm28.462-7.613a10.839,10.839,0,0,1,3.19-2.8,10.05,10.05,0,0,1,5.052-1.08,10.607,10.607,0,0,1,4.366.835,8.534,8.534,0,0,1,3.091,2.306,9.715,9.715,0,0,1,1.912,3.484,14.344,14.344,0,0,1,.639,4.366V66.626a.954.954,0,0,1-1.08,1.08h-.826a.954.954,0,0,1-1.08-1.08V52.936a9.061,9.061,0,0,0-1.912-6.131,6.915,6.915,0,0,0-5.592-2.259,7.446,7.446,0,0,0-5.641,2.2,8.588,8.588,0,0,0-2.11,6.189v13.69a.954.954,0,0,1-1.08,1.08h-.835a.954.954,0,0,1-1.08-1.08V33.946a.954.954,0,0,1,1.08-1.08h.835a.954.954,0,0,1,1.08,1.08V45.57Zm38.26-12.7a15.478,15.478,0,0,1,5.2.835,10.324,10.324,0,0,1,4.022,2.551,11.075,11.075,0,0,1,2.65,4.22,17.656,17.656,0,0,1,1.08,5.936q.1,2.2.1,4.121t-.1,4.121q-.248,7.016-3.581,10.3l3.14,4.415q.05.1.1.193a.841.841,0,0,1,.05.344,1.007,1.007,0,0,1-.983.983H255.2a1.205,1.205,0,0,1-.931-.441q-.391-.391-.639-.689l-2.165-2.994a15.621,15.621,0,0,1-6.87,1.424q-6.131,0-9.467-3.286-3.286-3.286-3.484-10.252-.1-2.2-.1-4.121t.1-4.121a18.579,18.579,0,0,1,1.03-5.936,11.916,11.916,0,0,1,2.65-4.22,10.829,10.829,0,0,1,4.022-2.551,15.636,15.636,0,0,1,5.25-.835Zm0,2.947a11.184,11.184,0,0,0-3.829.639,7.814,7.814,0,0,0-3.091,1.912,9.5,9.5,0,0,0-2.11,3.388,16.328,16.328,0,0,0-.835,4.9q-.05,1.1-.1,2.06V52.4q.05.931.1,2.011a16.544,16.544,0,0,0,.835,4.958,9.934,9.934,0,0,0,2.06,3.333,8.313,8.313,0,0,0,3.091,1.961,13.039,13.039,0,0,0,7.735,0A7.928,7.928,0,0,0,251.5,62.7a9.035,9.035,0,0,0,2.06-3.333,15.406,15.406,0,0,0,.881-4.958q.05-1.08.05-2.011V48.724q0-.931-.05-2.06a15.322,15.322,0,0,0-.881-4.9,8.986,8.986,0,0,0-2.06-3.388,7.8,7.8,0,0,0-3.091-1.912,11.154,11.154,0,0,0-3.829-.639Zm23.945,28.939H285.47a.974.974,0,0,1,1.1,1.1V66.6a.964.964,0,0,1-1.1,1.08H266.536a.954.954,0,0,1-1.08-1.08V34.442a.954.954,0,0,1,1.08-1.08h.931a.954.954,0,0,1,1.08,1.08V64.758ZM9.352,78.569,6.047,76.657,42.9,12.836,46.2,14.748Z" transform="translate(2.539 1.867)" fill="#e10098"/>
    <path id="Path_2" data-name="Path 2" d="M5.774,34.156h73.7v3.82H5.774Z" transform="translate(2.06 39.272)" fill="#e10098"/>
    <path id="Path_3" data-name="Path 3" d="M43.169,93.658,6.3,72.374l1.912-3.305L45.078,90.347ZM75.193,38.183,38.329,16.9,40.241,13.6,77.1,34.88Z" transform="translate(2.988 3.2)" fill="#e10098"/>
    <path id="Path_4" data-name="Path 4" d="M8.218,38.164,6.306,34.859,43.2,13.6l1.912,3.305Z" transform="translate(2.993 3.207)" fill="#e10098"/>
    <path id="Path_5" data-name="Path 5" d="M73.579,78.569,36.727,14.748l3.305-1.912L76.882,76.657ZM6.835,33.665H10.65V76.233H6.835Zm64.058,0h3.82V76.233H70.891Z" transform="translate(3.921 1.867)" fill="#e10098"/>
    <path id="Path_6" data-name="Path 6" d="M20.513,55.707l-1.669-2.892,32.062-18.51L52.575,37.2Z" transform="translate(24.991 39.534)" fill="#e10098"/>
    <path id="Path_7" data-name="Path 7" d="M83.7,79.342a8.036,8.036,0,1,1-2.945-10.977A8.043,8.043,0,0,1,83.7,79.342M19.6,42.322a8.036,8.036,0,1,1-2.945-10.977A8.043,8.043,0,0,1,19.6,42.322M5.7,79.342A8.037,8.037,0,1,1,16.676,82.29,8.048,8.048,0,0,1,5.7,79.342M69.8,42.322a8.037,8.037,0,1,1,10.977,2.947A8.048,8.048,0,0,1,69.8,42.322M44.692,101.877a8.029,8.029,0,1,1,8.029-8.029,8.022,8.022,0,0,1-8.029,8.029m0-74.046a8.016,8.016,0,1,1,5.682-2.348,8.022,8.022,0,0,1-5.682,2.348" transform="translate(0 0)" fill="#e10098"/>
  </g>
</svg>
