<svg xmlns="http://www.w3.org/2000/svg" width="202.372" height="59.814" viewBox="0 0 202.372 59.814">
  <g id="heroku" transform="translate(-0.921 -1.951)">
    <path id="Path_36" data-name="Path 36" d="M43.465,61.765H6.627A5.71,5.71,0,0,1,.921,56.06V7.657A5.71,5.71,0,0,1,6.627,1.951H43.465a5.71,5.71,0,0,1,5.706,5.706V56.048a5.71,5.71,0,0,1-5.706,5.706Z" transform="translate(0 0)" fill="#6762a6"/>
    <path id="Path_37" data-name="Path 37" d="M20.931,46.082V22.329S22.463,16.647,1.9,24.651c-.035.118-.035-21.962-.035-21.962l6.719-.047V16.788s18.826-7.427,18.826,5.623V46.082H20.931Zm3.831-34.894H17.63a43.923,43.923,0,0,0,4.892-8.511H29.89a35.321,35.321,0,0,1-5.128,8.511ZM1.975,46.035V32.514L8.742,39.28,1.975,46.047Z" transform="translate(10.227 7.455)" fill="#fff"/>
    <path id="Path_38" data-name="Path 38" d="M21.651,39.236V19.785a1.936,1.936,0,0,0-2.193-1.969,20.865,20.865,0,0,0-8.04,1.78V39.236H5.937V3.116h5.482V15.022a26.434,26.434,0,0,1,8.818-1.768c4.975,0,6.837,3.065,6.837,7.262V39.259ZM37.33,27.447c.177,6.531,1.462,7.816,5.482,7.816a28.567,28.567,0,0,0,9.454-2.1l.908,4.126a25.567,25.567,0,0,1-10.61,2.593c-9.136,0-10.551-5.022-10.551-13.014A43.542,43.542,0,0,1,33.38,14.845a31.106,31.106,0,0,1,11.01-1.6c7.5,0,9.784,4.161,9.784,11.435v2.782H37.33ZM44.285,17.8a35.312,35.312,0,0,0-6.389.472,27.571,27.571,0,0,0-.589,5.387H48.741c0-3.8-.684-5.847-4.432-5.847Zm20.04,1.768V39.236H58.843V17.144a31.711,31.711,0,0,1,12.7-3.513v4.562a22.875,22.875,0,0,0-7.215,1.415ZM86.016,39.849c-8.181,0-11.883-4.008-11.883-13.2,0-9.725,4.892-13.439,11.883-13.439,8.181,0,11.871,4.008,11.871,13.2C97.887,36.135,92.994,39.849,86.016,39.849Zm0-22.044c-4.208,0-6.531,2.417-6.531,8.865,0,7.038,1.969,8.606,6.531,8.606,4.2,0,6.531-2.381,6.531-8.818,0-7.038-1.969-8.629-6.531-8.629Zm38.312,21.42h-6.436a34.848,34.848,0,0,0-6.837-11.694h-2.876V39.224H102.7V3.116h5.482V23.864h2.558a33.243,33.243,0,0,0,6.436-9.961h6.165a42.946,42.946,0,0,1-7.816,11.058,77.45,77.45,0,0,1,8.818,14.3Zm10.279.637c-4.975,0-6.837-3.065-6.837-7.262V13.891h5.423V33.306a1.936,1.936,0,0,0,2.193,1.969,22.162,22.162,0,0,0,8.311-1.78v-19.6h5.482V35.911a29.1,29.1,0,0,1-14.57,3.973Z" transform="translate(54.115 12.568)" fill="#6762a6"/>
  </g>
</svg>
