<svg xmlns="http://www.w3.org/2000/svg" xmlns:xlink="http://www.w3.org/1999/xlink" width="435.592" height="115.446" viewBox="0 0 435.592 115.446">
  <defs>
    <radialGradient id="radial-gradient" cx="0.5" cy="0" r="1.001" gradientTransform="translate(0.5 -0.5) rotate(90) scale(0.999 1.152)" gradientUnits="objectBoundingBox">
      <stop offset="0" stop-color="#20c6b7"/>
      <stop offset="1" stop-color="#4d9abf"/>
    </radialGradient>
  </defs>
  <g id="netlify" transform="translate(-0.129 -0.829)">
    <path id="Path_8" data-name="Path 8" d="M61.283,29.438l.365,6.531a20.254,20.254,0,0,1,16.417-7.577q17.61,0,17.924,20.218V85.954H83.331V49.34q0-5.38-2.318-7.966t-7.583-2.585q-7.662,0-11.41,6.947V85.954H49.356V29.438H61.289ZM133.721,87q-12.034,0-19.513-7.6t-7.479-20.241V57.595a33.971,33.971,0,0,1,3.257-15.122,24.844,24.844,0,0,1,9.146-10.37A24.158,24.158,0,0,1,132.265,28.4q11.513,0,17.793,7.363T156.34,56.6v5.12H119.494q.579,7,4.665,11.072a13.991,13.991,0,0,0,10.293,4.074,17.128,17.128,0,0,0,14.174-7.051l6.825,6.531a22.832,22.832,0,0,1-9.039,7.859A28.251,28.251,0,0,1,133.724,87Zm-1.509-48.417a10.649,10.649,0,0,0-8.415,3.655q-3.209,3.655-4.092,10.186h24.128v-.942q-.419-6.374-3.387-9.636a10.575,10.575,0,0,0-8.234-3.263ZM182.028,15.7V29.44h9.954v9.4h-9.954V70.39q0,3.236,1.278,4.674t4.561,1.435a19.463,19.463,0,0,0,4.427-.523V85.8a31.044,31.044,0,0,1-8.338,1.2q-14.588,0-14.59-16.138V38.839h-9.283v-9.4h9.277V15.7h12.661ZM215.12,85.957H202.456V5.728H215.12Zm27.254,0H229.71V29.44h12.664Zm-13.446-71.2a6.747,6.747,0,0,1,1.848-4.855,6.991,6.991,0,0,1,5.289-1.931,7.085,7.085,0,0,1,5.319,1.931,6.706,6.706,0,0,1,1.872,4.858,6.547,6.547,0,0,1-1.872,4.778,7.131,7.131,0,0,1-5.319,1.908,7.037,7.037,0,0,1-5.289-1.908,6.583,6.583,0,0,1-1.848-4.778Zm31.684,71.2V38.839h-8.6v-9.4h8.6v-5.17q0-9.4,5.209-14.521t14.59-5.117a29.2,29.2,0,0,1,7.09.939l-.312,9.925a24.886,24.886,0,0,0-4.846-.416q-9.07,0-9.069,9.348v5.013h11.464v9.4H273.274V85.954H260.613Zm53.1-18.176,11.464-38.34h13.5l-22.4,65.083q-5.161,14.258-17.511,14.26a22.627,22.627,0,0,1-6.1-.942V98.021l2.4.157q4.791,0,7.218-1.75a11.6,11.6,0,0,0,3.83-5.875l1.822-4.858-19.8-56.255h13.654Z" transform="translate(97.048 7.492)" fill="#a4add3" fill-rule="evenodd"/>
    <path id="Path_9" data-name="Path 9" d="M83.312,40.367l-.042-.018a.176.176,0,0,1-.068-.039.327.327,0,0,1-.083-.276l2.3-14.043L96.187,36.766l-11.2,4.766a.247.247,0,0,1-.1.018h-.045a.309.309,0,0,1-.059-.051A5.1,5.1,0,0,0,83.312,40.367Zm15.624-.856,11.517,11.517c2.392,2.395,3.589,3.589,4.026,4.974a5.6,5.6,0,0,1,.16.621L87.116,44.967l-.045-.018c-.11-.045-.238-.1-.238-.208s.131-.166.241-.211l.036-.015ZM114.17,60.32a21.681,21.681,0,0,1-3.714,4.24L97.471,77.543l-16.795-3.5-.089-.018c-.149-.024-.306-.051-.306-.184A5.069,5.069,0,0,0,78.335,70.3a.291.291,0,0,1-.03-.273.094.094,0,0,1,.006-.042L81.47,50.592l.012-.065c.018-.149.045-.321.178-.321a5.141,5.141,0,0,0,3.447-1.976c.027-.03.045-.062.08-.08a.39.39,0,0,1,.306.042L114.167,60.32ZM94.485,80.529,73.132,101.882l3.655-22.464.006-.03a.4.4,0,0,1,.018-.086c.03-.071.107-.1.181-.131l.036-.015a5.5,5.5,0,0,0,2.065-1.536.454.454,0,0,1,.267-.178.267.267,0,0,1,.086,0l15.035,3.09ZM68.612,106.4l-2.407,2.407L39.6,70.352l-.03-.042a.261.261,0,0,1-.077-.178.2.2,0,0,1,.065-.125l.03-.039c.08-.119.149-.238.223-.365l.059-.1.009-.009a.425.425,0,0,1,.152-.178.36.36,0,0,1,.217,0l29.48,6.08a.487.487,0,0,1,.226.1.217.217,0,0,1,.056.128,5.221,5.221,0,0,0,3.055,3.491c.083.042.048.134.009.232a.707.707,0,0,0-.045.134C72.654,81.729,69.468,101.157,68.612,106.4Zm-5.028,5.025c-1.774,1.756-2.82,2.686-4,3.061a5.943,5.943,0,0,1-3.584,0c-1.385-.44-2.582-1.634-4.974-4.029L24.3,83.735l6.98-10.825a.445.445,0,0,1,.119-.14.308.308,0,0,1,.27,0,7.232,7.232,0,0,0,4.867-.247c.08-.03.16-.051.223.006a.564.564,0,0,1,.083.1l26.74,38.8ZM21.726,81.159l-6.13-6.13L27.7,69.864a.25.25,0,0,1,.1-.021c.1,0,.16.1.214.193q.182.281.386.547l.039.048c.036.051.012.1-.024.149L21.729,81.159Zm-8.843-8.843L5.128,64.56c-1.319-1.319-2.276-2.276-2.942-3.1l23.581,4.891.089.015c.146.024.306.051.306.187s-.175.217-.324.273l-.068.03ZM.831,57.474A5.943,5.943,0,0,1,1.1,56c.44-1.385,1.634-2.579,4.029-4.974L15.052,41.1Q21.906,51.051,28.8,60.975c.08.106.17.225.077.314A8.248,8.248,0,0,0,27.7,62.858a.475.475,0,0,1-.149.184.164.164,0,0,1-.125.006h-.006L.831,57.471ZM17.709,38.448,31.048,25.1c1.257.55,5.824,2.478,9.9,4.2,3.09,1.307,5.907,2.5,6.793,2.882a.328.328,0,0,1,.208.16.3.3,0,0,1,0,.178,5.952,5.952,0,0,0,1.554,5.432c.089.089,0,.217-.077.327l-.042.062L35.837,59.334a.411.411,0,0,1-.128.149.344.344,0,0,1-.256,0,6.757,6.757,0,0,0-1.613-.22,8.888,8.888,0,0,0-1.551.187h0a.2.2,0,0,1-.16-.015.624.624,0,0,1-.134-.152L17.706,38.448Zm16.04-16.04L51.024,5.132C53.416,2.74,54.614,1.542,56,1.105a5.943,5.943,0,0,1,3.584,0c1.385.437,2.582,1.634,4.974,4.026L68.3,8.876,56.014,27.9a.461.461,0,0,1-.122.143.312.312,0,0,1-.267,0,6.231,6.231,0,0,0-5.705,1.1c-.08.083-.2.036-.3-.009-1.6-.7-14.085-5.973-15.87-6.73ZM70.909,11.485,82.254,22.83,79.521,39.761v.045a.4.4,0,0,1-.024.113c-.03.059-.089.071-.149.089a5.438,5.438,0,0,0-1.628.811.457.457,0,0,0-.059.051.187.187,0,0,1-.119.074.339.339,0,0,1-.128-.021L60.126,33.577l-.033-.015c-.11-.045-.241-.1-.241-.211a6.531,6.531,0,0,0-.921-2.719c-.083-.137-.175-.279-.1-.419ZM59.226,37.057l16.206,6.864c.089.042.187.08.226.172a.315.315,0,0,1,0,.169,4.028,4.028,0,0,0-.089.781V45.5c0,.113-.116.16-.223.205l-.033.012c-2.567,1.1-36.044,15.371-36.094,15.371a.192.192,0,0,1-.155-.051c-.089-.089,0-.214.08-.327l.042-.059L52.5,40.028l.024-.036c.077-.125.166-.264.309-.264l.134.021a6.21,6.21,0,0,0,.841.08,6.017,6.017,0,0,0,5.022-2.665.475.475,0,0,1,.1-.119.3.3,0,0,1,.291.012ZM40.666,64.35,77.155,48.788a.161.161,0,0,1,.1.051,4.938,4.938,0,0,0,.532.458l.08.051c.074.042.149.089.155.166a.3.3,0,0,1-.006.074l-3.126,19.2-.012.077c-.021.149-.042.318-.181.318a5.138,5.138,0,0,0-4.08,2.517l-.015.024a.414.414,0,0,1-.149.169.332.332,0,0,1-.208,0l-29.1-6c-.03-.006-.452-1.542-.484-1.545Z" transform="translate(-0.702 0)" fill="url(#radial-gradient)"/>
  </g>
</svg>
