<svg xmlns="http://www.w3.org/2000/svg" xmlns:xlink="http://www.w3.org/1999/xlink" width="442.4" height="270.994" viewBox="0 0 442.4 270.994">
  <defs>
    <linearGradient id="linear-gradient" x1="0.682" y1="0.175" x2="0.279" y2="0.898" gradientUnits="objectBoundingBox">
      <stop offset="0" stop-color="#3f873f"/>
      <stop offset="0.3" stop-color="#3f8b3d"/>
      <stop offset="0.6" stop-color="#3e9637"/>
      <stop offset="0.9" stop-color="#3da92e"/>
      <stop offset="1" stop-color="#3dae2b"/>
    </linearGradient>
    <clipPath id="clip-path">
      <path id="Path_23" data-name="Path 23" d="M166.1,62.6a5,5,0,0,0-5,0L118.8,87a5,5,0,0,0-2.5,4.4V140a5,5,0,0,0,2.5,4.4l42.1,24.3a5,5,0,0,0,5,0l42.2-24.3a5,5,0,0,0,2.6-4.4V91.3a5,5,0,0,0-2.6-4.4Z" transform="translate(-0.3)" fill="url(#linear-gradient)"/>
    </clipPath>
    <linearGradient id="linear-gradient-3" x1="0.433" y1="0.552" x2="1.591" y2="-0.184" gradientUnits="objectBoundingBox">
      <stop offset="0.1" stop-color="#3f873f"/>
      <stop offset="0.4" stop-color="#529f44"/>
      <stop offset="0.7" stop-color="#63b649"/>
      <stop offset="0.9" stop-color="#6abf4b"/>
    </linearGradient>
    <linearGradient id="linear-gradient-4" x1="-55.125" y1="0.5" x2="66.625" y2="0.5" gradientUnits="objectBoundingBox">
      <stop offset="0.1" stop-color="#6abf4b"/>
      <stop offset="0.3" stop-color="#63b649"/>
      <stop offset="0.6" stop-color="#529f44"/>
      <stop offset="0.9" stop-color="#3f873f"/>
    </linearGradient>
    <linearGradient id="linear-gradient-5" x1="-0.045" y1="0.5" x2="1.016" y2="0.5" xlink:href="#linear-gradient-4"/>
    <linearGradient id="linear-gradient-6" x1="-323.663" y1="0.429" x2="1" y2="0.429" xlink:href="#linear-gradient-4"/>
    <linearGradient id="linear-gradient-7" x1="-1.036" y1="0.5" x2="1.006" y2="0.5" xlink:href="#linear-gradient-4"/>
    <linearGradient id="linear-gradient-8" x1="1.304" y1="-2.104" x2="0.044" y2="2.01" xlink:href="#linear-gradient"/>
  </defs>
  <g id="node" transform="translate(0 -0.006)">
    <path id="Path_10" data-name="Path 10" d="M218.7,271a8.4,8.4,0,0,1-4.2-1.2l-13.3-7.9c-2-1.1-1-1.5-.4-1.7a26.3,26.3,0,0,0,6-2.8,1,1,0,0,1,1,.1l10.2,6a1.3,1.3,0,0,0,1.3,0l40-23a1.3,1.3,0,0,0,.5-1V193.3a1.3,1.3,0,0,0-.6-1l-40-23a1.2,1.2,0,0,0-1.1,0l-40,23a1.3,1.3,0,0,0-.6,1v46.1a1.2,1.2,0,0,0,.6,1.1l11,6.3c6,3,9.6-.5,9.6-4V197.3a1.1,1.1,0,0,1,1.1-1.2h5a1.1,1.1,0,0,1,1.2,1.2v45.5c0,8-4.3,12.5-11.8,12.5-2.3,0-4.1,0-9.2-2.5l-10.5-6a8.5,8.5,0,0,1-4.2-7.3V193.4a8.4,8.4,0,0,1,4.2-7.3l40-23.1a8.8,8.8,0,0,1,8.3,0l40,23a8.4,8.4,0,0,1,4.2,7.4v46a8.5,8.5,0,0,1-4.1,7.3l-40,23.1a8.4,8.4,0,0,1-4.2,1.1Z" fill="#679e63"/>
    <path id="Path_11" data-name="Path 11" d="M231,239.2c-17.5,0-21.2-8-21.2-14.8a1.1,1.1,0,0,1,1.2-1.1h5.2a1.1,1.1,0,0,1,1.1,1c.8,5.2,3.1,7.9,13.7,7.9,8.4,0,12-2,12-6.4,0-2.6-1-4.5-14.1-5.8-11-1-17.7-3.5-17.7-12.2,0-8,6.8-12.9,18.2-12.9,12.8,0,19.1,4.5,20,14a1.1,1.1,0,0,1-.4,1,1.2,1.2,0,0,1-.8.3H243a1.1,1.1,0,0,1-1.1-1c-1.3-5.5-4.3-7.2-12.5-7.2-9.2,0-10.3,3.2-10.3,5.6,0,2.9,1.3,3.7,13.7,5.4s18.1,3.9,18.1,12.5-7.2,13.7-20,13.7Zm57.6-48.4a7.7,7.7,0,1,1-7.7-7.7,7.7,7.7,0,0,1,7.7,7.7Zm-14.2,0a6.5,6.5,0,1,0,6.5-6.4,6.5,6.5,0,0,0-6.5,6.4Zm3.6-4.3h3c1,0,3,0,3,2.3a2,2,0,0,1-1.6,2.1c1.1,0,1.2.9,1.4,2a8.5,8.5,0,0,0,.4,2.3h-1.8l-.3-2.7c-.1-.5-.3-.8-1-.8h-1.4v3.5H278Zm1.6,3.8H281a1.2,1.2,0,0,0,1.3-1.2c0-1.2-.8-1.2-1.3-1.2h-1.4Z" fill="#679e63"/>
    <path id="Path_12" data-name="Path 12" d="M95,90.5a5.1,5.1,0,0,0-2.6-4.4L50,61.7a5.1,5.1,0,0,0-2.3-.6h-.5a5.2,5.2,0,0,0-2.3.6L2.6,86.1A5.1,5.1,0,0,0,0,90.6v65.6a2.5,2.5,0,0,0,1.4,2.2,2.5,2.5,0,0,0,2.5,0L29.1,144a5.2,5.2,0,0,0,2.6-4.5V109a5.1,5.1,0,0,1,2.5-4.4L45,98.3a5.1,5.1,0,0,1,2.5-.7,5,5,0,0,1,2.6.7l10.7,6.2a5.1,5.1,0,0,1,2.5,4.4v30.6A5.2,5.2,0,0,0,66,144l25,14.4a2.5,2.5,0,0,0,2.6,0,2.6,2.6,0,0,0,1.3-2.2ZM298.7.3a2.6,2.6,0,0,0-3.8,2.3v65a1.856,1.856,0,0,1-2.7,1.5L281.6,63a5.1,5.1,0,0,0-5,0L234,87.5a5,5,0,0,0-2.5,4.4v48.9a5.1,5.1,0,0,0,2.6,4.4l42.3,24.5a5.1,5.1,0,0,0,5.1,0l42.4-24.5a5.1,5.1,0,0,0,2.6-4.4V18.8a5.1,5.1,0,0,0-2.7-4.4Zm-4,124.4a1.3,1.3,0,0,1-.6,1.1l-14.5,8.4a1.3,1.3,0,0,1-1.3,0l-14.5-8.4a1.3,1.3,0,0,1-.7-1V107.9a1.3,1.3,0,0,1,.6-1l14.6-8.5a1.3,1.3,0,0,1,1.3,0l14.5,8.4a1.3,1.3,0,0,1,.7,1.1Zm145.1-17.2a5.1,5.1,0,0,0,2.6-4.4V91.2a5.1,5.1,0,0,0-2.6-4.4L397.7,62.3a5.1,5.1,0,0,0-5.1,0L350.2,86.8a5,5,0,0,0-2.5,4.4v49a5.1,5.1,0,0,0,2.6,4.4l42,24a5.1,5.1,0,0,0,5,0l25.5-14.2a2.6,2.6,0,0,0,0-4.5l-42.6-24.4a2.6,2.6,0,0,1-1.3-2.2V108a2.5,2.5,0,0,1,1.3-2.2l13.3-7.7a2.5,2.5,0,0,1,2.5,0l13.3,7.7a2.5,2.5,0,0,1,1.3,2.2v12a2.5,2.5,0,0,0,3.8,2.2Z" fill="#fff" fill-rule="evenodd"/>
    <path id="Path_13" data-name="Path 13" d="M394.5,105.2a1,1,0,0,1,1,0l8.2,4.7a1,1,0,0,1,.5.8v9.4a1,1,0,0,1-.5.9l-8.1,4.7a1,1,0,0,1-1,0l-8.2-4.7a1,1,0,0,1-.4-.9v-9.4a1,1,0,0,1,.4-.8Z" fill="#679e63" fill-rule="evenodd"/>
    <path id="Path_14" data-name="Path 14" d="M166.1,62.6a5,5,0,0,0-5,0L118.8,87a5,5,0,0,0-2.5,4.4V140a5,5,0,0,0,2.5,4.4l42.1,24.3a5,5,0,0,0,5,0l42.2-24.3a5,5,0,0,0,2.6-4.4V91.3a5,5,0,0,0-2.6-4.4Z" transform="translate(-0.3)" fill-rule="evenodd" fill="url(#linear-gradient)"/>
    <g id="Group_3" data-name="Group 3" clip-path="url(#clip-path)">
      <path id="Path_15" data-name="Path 15" d="M160.6,62.6,118.4,86.9a5.3,5.3,0,0,0-2.7,4.4V140a4.9,4.9,0,0,0,1.3,3.2l47.4-81.1a5.2,5.2,0,0,0-3.8.5Zm4.1,106.6a5,5,0,0,0,1.2-.5L208,144.4a5.2,5.2,0,0,0,2.7-4.4V91.3a5,5,0,0,0-1.5-3.5Z" fill="none"/>
      <path id="Path_16" data-name="Path 16" d="M208.3,87,166.1,62.6a5,5,0,0,0-1.3-.5l-47.5,81.1a6,6,0,0,0,1.4,1.2l42.4,24.3a5.2,5.2,0,0,0,3.9.5l44.5-81.4a6,6,0,0,0-1.2-.9Z" transform="translate(-0.3)" fill="url(#linear-gradient-3)"/>
      <path id="Path_17" data-name="Path 17" d="M210.7,140V91.3A5.2,5.2,0,0,0,208,87L165.8,62.7a5,5,0,0,0-1.6-.6l46.3,79.1a4.5,4.5,0,0,0,.2-1.1ZM118.4,86.9a5.3,5.3,0,0,0-2.7,4.4V140a5.3,5.3,0,0,0,2.7,4.4l42.3,24.3a5.1,5.1,0,0,0,3.3.7L118.7,86.8Z" fill="none"/>
      <path id="Path_18" data-name="Path 18" d="M159.3,53.6l-.6.4h.8Z" fill="url(#linear-gradient-4)"/>
      <path id="Path_19" data-name="Path 19" d="M208.3,144.4a5.3,5.3,0,0,0,2.5-3.2L164.5,62a5.2,5.2,0,0,0-3.6.6L119,86.8l45.3,82.6a5.2,5.2,0,0,0,1.9-.7Z" transform="translate(-0.3)" fill="url(#linear-gradient-5)"/>
      <path id="Path_20" data-name="Path 20" d="M212,143.6l-.3-.5v.7Z" fill="url(#linear-gradient-6)"/>
      <path id="Path_21" data-name="Path 21" d="M208.3,144.4l-42.1,24.3a5.2,5.2,0,0,1-1.9.7l.8,1.5L212,143.8v-.7l-1.2-2a5.3,5.3,0,0,1-2.5,3.3Z" transform="translate(-0.3)" fill="url(#linear-gradient-7)"/>
      <path id="Path_22" data-name="Path 22" d="M208.3,144.4l-42.1,24.3a5.2,5.2,0,0,1-1.9.7l.8,1.5L212,143.8v-.7l-1.2-2a5.3,5.3,0,0,1-2.5,3.3Z" transform="translate(-0.3)" fill="url(#linear-gradient-8)"/>
    </g>
  </g>
</svg>
