<svg xmlns="http://www.w3.org/2000/svg" width="555.321" height="97.519" viewBox="0 0 555.321 97.519">
  <g id="nuxt" transform="translate(0 0.037)">
    <path id="Path_24" data-name="Path 24" d="M74.4,3.7A5.809,5.809,0,0,1,76,7.9V89.4a6.918,6.918,0,0,1-1.8,4.7A6.2,6.2,0,0,1,69.6,96a10.473,10.473,0,0,1-3-.5,5,5,0,0,1-2.1-1.4L11.7,25.4V90a5.7,5.7,0,0,1-6,5.9,5.439,5.439,0,0,1-4-1.7A5.8,5.8,0,0,1,0,90.1V8.4A6.287,6.287,0,0,1,2,3.8,6,6,0,0,1,6.3,2a7.653,7.653,0,0,1,3,.6,5.272,5.272,0,0,1,2.4,1.7L64.2,73.2V7.9a5.7,5.7,0,0,1,6-5.9,5.087,5.087,0,0,1,4,1.7Zm108.7.2a6.748,6.748,0,0,1,1.7,4.6V60.1a38.244,38.244,0,0,1-4.7,19,33.276,33.276,0,0,1-13,13.3,35.476,35.476,0,0,1-18.6,4.9,38.947,38.947,0,0,1-18.8-4.8,34,34,0,0,1-13-13.2A38.6,38.6,0,0,1,112,60.2V8.6A5.931,5.931,0,0,1,114,4a6.7,6.7,0,0,1,9.3,0,6.42,6.42,0,0,1,1.9,4.6V60a24.389,24.389,0,0,0,3.2,12.6,23.2,23.2,0,0,0,20.1,11.7A24,24,0,0,0,172.6,60V8.6a7.241,7.241,0,0,1,1.6-4.7A5.636,5.636,0,0,1,178.7,2a5.966,5.966,0,0,1,4.4,1.9ZM287,85.7a6.3,6.3,0,0,1,1.1,3.8,5.838,5.838,0,0,1-1.9,4.6,6.4,6.4,0,0,1-4.3,1.7,6.238,6.238,0,0,1-5.3-2.7l-26-34.8L225,93.1a6.2,6.2,0,0,1-5.2,2.8,5.664,5.664,0,0,1-4.1-1.7,5.569,5.569,0,0,1-1.7-3.8,6.989,6.989,0,0,1,1.6-4.4l27.6-37.5L215.5,11.3a6.2,6.2,0,0,1,.5-8.4,6.3,6.3,0,0,1,7.4-1.2,6,6,0,0,1,2.4,2l25.8,34.6L277,4a6.82,6.82,0,0,1,5.1-3,6.015,6.015,0,0,1,4.3,2,6.057,6.057,0,0,1,1.9,4,6.489,6.489,0,0,1-1.4,4l-28,37.2,28,37.5Zm96.5-82a5.826,5.826,0,0,1,1.9,4.5,5.707,5.707,0,0,1-2,4.4,6.336,6.336,0,0,1-4.6,1.6H355V89.6a5.974,5.974,0,0,1-1.9,4.5,7.4,7.4,0,0,1-9.8,0,6.2,6.2,0,0,1-2-4.5V14.2H317.5a6.578,6.578,0,0,1-4.6-1.7A5.9,5.9,0,0,1,311,8a5.815,5.815,0,0,1,1.8-4.3A6.3,6.3,0,0,1,317.4,2h61.4a6.822,6.822,0,0,1,4.7,1.7Z" fill="#fff" fill-rule="evenodd"/>
    <path id="Path_25" data-name="Path 25" d="M412.7,93.6a28.048,28.048,0,0,1-10.5-10.3,7.35,7.35,0,0,1-1.2-3.6,5.707,5.707,0,0,1,2-4.4,6.663,6.663,0,0,1,4.2-2,8.763,8.763,0,0,1,6,3.4,15.874,15.874,0,0,0,14.1,7.8A17.2,17.2,0,0,0,445,67.3V8.5a6,6,0,0,1,2-4.6,7.022,7.022,0,0,1,9.5-.1,6.3,6.3,0,0,1,1.8,4.6v59a29,29,0,0,1-15,26,31.2,31.2,0,0,1-30.5.2Zm92.5.4a42.6,42.6,0,0,1-14.4-9,7.2,7.2,0,0,1-2.8-5.4,6.694,6.694,0,0,1,6.3-6.3,5.606,5.606,0,0,1,3.9,1.5,40.554,40.554,0,0,0,11,7.3,36.489,36.489,0,0,0,13,2.4,25.21,25.21,0,0,0,14.3-4,11.356,11.356,0,0,0,5.8-9.8,12.591,12.591,0,0,0-5.8-10.8,52,52,0,0,0-17.4-6.3c-9.2-2-16.3-5-21.3-9.3s-7.4-10.3-7.4-17.9a23.324,23.324,0,0,1,4.2-14A27.752,27.752,0,0,1,506,3.2a45.5,45.5,0,0,1,32.4-.5,33,33,0,0,1,12,7.1,7.4,7.4,0,0,1,3,5.7,6,6,0,0,1-1.8,4.3,5.7,5.7,0,0,1-4.4,2,4.823,4.823,0,0,1-3-1.1,32.1,32.1,0,0,0-21.4-8.2,24.857,24.857,0,0,0-14.3,3.6,11.9,11.9,0,0,0,0,19.8,50,50,0,0,0,15.8,6,84.715,84.715,0,0,1,17.1,5.3,24.031,24.031,0,0,1,10.3,8.6,25.987,25.987,0,0,1,3.6,14.4A22.62,22.62,0,0,1,551,84a27.787,27.787,0,0,1-12,9.4,49.8,49.8,0,0,1-33.9.6Z" fill="#00c48d" fill-rule="evenodd"/>
  </g>
</svg>
