<svg xmlns="http://www.w3.org/2000/svg" width="167.797" height="55.917" viewBox="0 0 167.797 55.917">
  <g id="react" transform="translate(-6.579 -12.576)">
    <g id="Group_5" data-name="Group 5" transform="translate(7.41 13.519)">
      <circle id="Ellipse_1" data-name="Ellipse 1" cx="5.696" cy="5.696" r="5.696" transform="translate(24.837 21.263)" fill="#00d8ff"/>
      <g id="Group_4" data-name="Group 4" transform="translate(0 0)">
        <path id="Path_32" data-name="Path 32" d="M30.576,9.4a63.91,63.91,0,0,1,20.11,2.942c6.454,2.222,10.423,5.59,10.423,8.64,0,3.178-4.206,6.756-11.137,9.053a64.174,64.174,0,0,1-19.4,2.642c-7.443,0-14.492-.851-19.791-2.662C4.081,27.72.043,24.1.043,20.978c0-3.025,3.789-6.367,10.153-8.586a64.469,64.469,0,0,1,20.38-3Z" transform="translate(-0.043 5.981)" fill="none" stroke="#00d8ff" stroke-width="1.663" fill-rule="evenodd"/>
        <path id="Path_33" data-name="Path 33" d="M15.689,21.215A63.912,63.912,0,0,1,28.283,5.264C33.433.783,38.333-.972,40.975.552c2.753,1.588,3.752,7.019,2.279,14.17a64.138,64.138,0,0,1-7.4,18.122c-3.719,6.448-7.977,12.129-12.192,15.814-5.334,4.663-10.492,6.351-13.192,4.793C7.848,51.94,6.846,46.987,8.1,40.366a64.494,64.494,0,0,1,7.585-19.151Z" transform="translate(4.762 -0.014)" fill="none" stroke="#00d8ff" stroke-width="1.663" fill-rule="evenodd"/>
        <path id="Path_34" data-name="Path 34" d="M15.692,32.836A63.929,63.929,0,0,1,8.163,13.959C6.852,7.26,7.779,2.138,10.419.61c2.751-1.592,7.954.255,13.414,5.1a64.17,64.17,0,0,1,12,15.462c3.729,6.442,6.524,12.968,7.612,18.46,1.376,6.95.262,12.261-2.436,13.823-2.618,1.516-7.409-.089-12.517-4.485a64.474,64.474,0,0,1-12.8-16.136Z" transform="translate(4.768 0.01)" fill="none" stroke="#00d8ff" stroke-width="1.663" fill-rule="evenodd"/>
      </g>
    </g>
    <path id="Path_35" data-name="Path 35" d="M71.937,48.938,64.955,38.39a7.152,7.152,0,0,0,6.708-7.539c0-4.753-3.373-7.795-8.1-7.795H53.168V48.918h3.219V38.642h5.158l6.592,10.276ZM63.174,35.831H56.389V25.944h6.785a4.95,4.95,0,1,1,0,9.891ZM83.919,49.4a10.177,10.177,0,0,0,7.446-2.868l-1.4-1.9A8.187,8.187,0,0,1,84.191,47a6.6,6.6,0,0,1-6.747-6.474H92.6v-.738c0-5.622-3.335-10.043-9-10.043-5.351,0-9.227,4.383-9.227,9.811,0,5.856,3.994,9.834,9.539,9.834Zm5.818-11.014H77.445c.156-2.868,2.131-6.244,6.126-6.244A6.072,6.072,0,0,1,89.737,38.388Zm22.181,10.548V36.063c0-4.537-3.294-6.321-7.251-6.321a9.8,9.8,0,0,0-7.483,3.1l1.357,2.016a7.442,7.442,0,0,1,5.74-2.6c2.714,0,4.732,1.434,4.732,3.955V39.59a7.831,7.831,0,0,0-6.2-2.56c-3.18,0-6.556,1.978-6.556,6.166,0,4.071,3.373,6.2,6.556,6.2a8.1,8.1,0,0,0,6.2-2.6v2.131Zm-8.064-1.629c-2.714,0-4.615-1.7-4.615-4.071,0-2.4,1.9-4.11,4.615-4.11a6.272,6.272,0,0,1,5.158,2.327v3.529a6.275,6.275,0,0,1-5.158,2.327ZM125.981,49.4a8.021,8.021,0,0,0,6.864-3.257l-1.939-1.783a5.639,5.639,0,0,1-4.753,2.442c-3.994,0-6.474-3.1-6.474-7.251s2.481-7.211,6.474-7.211a5.509,5.509,0,0,1,4.753,2.442L132.845,33a8.015,8.015,0,0,0-6.864-3.257c-5.584,0-9.345,4.266-9.345,9.811,0,5.584,3.761,9.834,9.345,9.834Zm15.668,0a4.766,4.766,0,0,0,3.491-1.2l-.852-2.172a2.78,2.78,0,0,1-1.978.775c-1.278,0-1.9-1.008-1.9-2.4V32.767h3.8V30.208h-3.8V25.09H137.5v5.118h-3.1v2.56h3.1V45.023c0,2.793,1.4,4.383,4.15,4.383Z" transform="translate(29.236 6.093)" fill="#00d8ff" fill-rule="evenodd"/>
  </g>
</svg>
