<svg xmlns="http://www.w3.org/2000/svg" width="237.835" height="61.218" viewBox="0 0 237.835 61.218">
  <g id="strapi" transform="translate(-0.395 0)">
    <path id="Path_26" data-name="Path 26" d="M43.3,4.727H8.751V22.048h17a1.1,1.1,0,0,1,1.1,1.1V39.909H44.395V5.826a1.1,1.1,0,0,0-1.1-1.1Z" transform="translate(8.401 4.752)" fill="#8e75ff" fill-rule="evenodd"/>
    <path id="Path_27" data-name="Path 27" d="M17.15,4.727V22.048H.943a.549.549,0,0,1-.385-.94ZM36.181,56.308a.549.549,0,0,1-.934-.391V39.909H52.8l-16.614,16.4Z" transform="translate(0 4.752)" fill="#8e75ff" fill-rule="evenodd" opacity="0.405"/>
    <path id="Path_28" data-name="Path 28" d="M8.75,13.365H26.3a.548.548,0,0,1,.547.547V31.226h-17a1.1,1.1,0,0,1-1.1-1.1V13.365Z" transform="translate(8.4 13.436)" fill="#8e75ff" opacity="0.405"/>
    <path id="Path_29" data-name="Path 29" d="M192.707,8.386A4.771,4.771,0,0,0,196.18,9.84a4.846,4.846,0,0,0,3.537-1.454,4.671,4.671,0,0,0,1.47-3.435,4.772,4.772,0,0,0-1.47-3.465A4.8,4.8,0,0,0,196.18,0a4.731,4.731,0,0,0-3.473,1.484,4.778,4.778,0,0,0-1.47,3.469,4.669,4.669,0,0,0,1.47,3.433ZM86.308,21.043a.187.187,0,0,1-.186.184H79.233V34.1a3.046,3.046,0,0,0,.814,2.352,3.759,3.759,0,0,0,2.378.834,33.3,33.3,0,0,0,3.491-.01l.195-.01a.184.184,0,0,1,.195.184v6.88a.185.185,0,0,1-.164.184l-.126.014q-8.091.851-11.444-1.58Q71.16,40.476,71.162,34.1V21.228H65.9a.184.184,0,0,1-.184-.184V13.738a.185.185,0,0,1,.184-.184h5.26V8.446a.374.374,0,0,1,.223-.341l7.592-3.3a.184.184,0,0,1,.261.168v8.583h6.886a.185.185,0,0,1,.184.184v7.305Zm14.638-2.166a8.359,8.359,0,0,1,3.722-4.458,11.33,11.33,0,0,1,5.6-1.484.186.186,0,0,1,.186.186v8.392a.3.3,0,0,1-.331.3,9.527,9.527,0,0,0-6.272,1.52q-2.909,1.916-2.908,6.375V44.315a.184.184,0,0,1-.186.184h-7.7a.184.184,0,0,1-.184-.184V13.736a.185.185,0,0,1,.184-.184h7.7a.185.185,0,0,1,.184.184v5.137Zm38.172-5.324a.184.184,0,0,0-.186.184v3.469q-3.628-4.521-10.2-4.52A14.249,14.249,0,0,0,118,17.422a16.258,16.258,0,0,0-4.476,11.6A16.258,16.258,0,0,0,118,40.631a14.249,14.249,0,0,0,10.732,4.734q6.572,0,10.2-4.518v3.467a.187.187,0,0,0,.186.184h7.7a.186.186,0,0,0,.186-.184V13.736a.184.184,0,0,0-.186-.184h-7.7Zm-15.08,21.785a8.7,8.7,0,0,0,14.893-6.313,8.671,8.671,0,1,0-17.336,0,8.611,8.611,0,0,0,2.442,6.313Zm58.855-17.917a14.322,14.322,0,0,0-10.8-4.734q-6.572,0-10.139,4.518V13.738a.184.184,0,0,0-.185-.184h-7.7a.184.184,0,0,0-.185.184V56.691a.186.186,0,0,0,.185.186h7.7a.187.187,0,0,0,.185-.186V40.847q3.567,4.518,10.139,4.518a14.322,14.322,0,0,0,10.8-4.734,16.265,16.265,0,0,0,4.474-11.6,16.265,16.265,0,0,0-4.474-11.6ZM164.4,35.339a8.7,8.7,0,0,0,14.9-6.313,8.671,8.671,0,1,0-17.336,0,8.617,8.617,0,0,0,2.44,6.313ZM192.36,44.5a.184.184,0,0,1-.185-.184V13.736a.185.185,0,0,1,.184-.184h7.7a.184.184,0,0,1,.185.184v30.58a.184.184,0,0,1-.185.184h-7.7ZM48.412,24.354q-1.66-.773-1.658-2.011a2.113,2.113,0,0,1,1.033-1.857,4.628,4.628,0,0,1,2.6-.682,5.087,5.087,0,0,1,4.532,2.314.267.267,0,0,0,.327.1l6.814-2.982a.184.184,0,0,0,.084-.261q-.118-.2-.241-.389a12.165,12.165,0,0,0-4.57-4.2,14.294,14.294,0,0,0-6.946-1.7A13.475,13.475,0,0,0,41.9,15.318a8.61,8.61,0,0,0-3.409,7.209,7.67,7.67,0,0,0,1.658,5.045,9.76,9.76,0,0,0,4.037,2.94,42.35,42.35,0,0,0,4.757,1.546,23.937,23.937,0,0,1,4.037,1.394q1.657.773,1.658,2.011,0,2.662-4.317,2.661-4.112,0-5.7-3a.371.371,0,0,0-.477-.174l-6.794,2.978a.184.184,0,0,0-.092.249l.076.154q3.561,7.038,12.984,7.038A15.076,15.076,0,0,0,59.3,42.8a8.472,8.472,0,0,0,3.6-7.335A8.243,8.243,0,0,0,61.242,30.2a9.224,9.224,0,0,0-4.037-3,42.091,42.091,0,0,0-4.757-1.486,22.2,22.2,0,0,1-4.037-1.364Z" transform="translate(37.043 0)" fill="#fff" fill-rule="evenodd"/>
  </g>
</svg>
