<svg xmlns="http://www.w3.org/2000/svg" xmlns:xlink="http://www.w3.org/1999/xlink" width="331.93" height="67.735" viewBox="0 0 331.93 67.735">
  <defs>
    <linearGradient id="linear-gradient" y1="-0.889" x2="1" y2="1.889" gradientUnits="objectBoundingBox">
      <stop offset="0" stop-color="#2383ae"/>
      <stop offset="1" stop-color="#6dd7b9"/>
    </linearGradient>
  </defs>
  <g id="tailwind" transform="translate(-8.627 -19.516)">
    <path id="Path_30" data-name="Path 30" d="M35.513,42.1q5.64-22.579,28.219-22.579c22.579,0,25.4,16.926,36.683,19.753q11.29,2.825,19.753-8.463-5.64,22.575-28.216,22.576c-22.579,0-25.4-16.926-36.683-19.753Q43.98,30.8,35.517,42.092ZM7.294,75.961q5.65-22.579,28.219-22.579c22.579,0,25.4,16.926,36.683,19.753q11.29,2.825,19.753-8.463-5.64,22.579-28.219,22.579c-22.579,0-25.4-16.926-36.683-19.753q-11.29-2.825-19.753,8.463Z" transform="translate(1.333 0)" fill-rule="evenodd" fill="url(#linear-gradient)"/>
    <path id="Path_31" data-name="Path 31" d="M55.031,31.073H47.643V26.647H67.574v4.425H60.189V51.145H55.031ZM77.222,48.881a9.4,9.4,0,0,1-2.39,1.954,6.823,6.823,0,0,1-3.418.756,8.27,8.27,0,0,1-2.284-.31,5.293,5.293,0,0,1-1.893-.959,4.608,4.608,0,0,1-1.286-1.664,5.663,5.663,0,0,1-.485-2.423,5.1,5.1,0,0,1,.827-3.02A5.588,5.588,0,0,1,68.459,41.4a10.83,10.83,0,0,1,3-.927,27.264,27.264,0,0,1,3.389-.342l2.3-.1v-.892a2.523,2.523,0,0,0-.911-2.261,3.775,3.775,0,0,0-2.145-.614q-2.859,0-3.263,2.164l-4.393-.41a5.642,5.642,0,0,1,2.471-4.07,9.952,9.952,0,0,1,5.362-1.253,10.715,10.715,0,0,1,3.5.5A5.725,5.725,0,0,1,80.1,34.607a5.523,5.523,0,0,1,1.273,2.248,10.312,10.312,0,0,1,.394,2.972V51.149H77.222V48.888Zm-.1-5.73-2.132.1a11.879,11.879,0,0,0-2.439.31,4.248,4.248,0,0,0-1.421.6,1.791,1.791,0,0,0-.669.84,3.293,3.293,0,0,0-.171,1.066,1.737,1.737,0,0,0,.614,1.405,2.616,2.616,0,0,0,1.712.517,4.947,4.947,0,0,0,3.024-.859A3.8,3.8,0,0,0,76.7,45.916a3.75,3.75,0,0,0,.41-1.835v-.927Zm8.547-9.917h4.813V51.142H85.666Zm-.065-6.59h4.942v4.322H85.6Zm8.993,0h4.813v24.5H94.594Zm6.968,6.59h5.22l2.51,11.871,3.431-11.7h4.193l3.23,11.735,2.51-11.871h5.017l-5.223,17.908h-4.674l-3.2-11.8-3.23,11.8h-4.568l-5.22-17.908Zm28.3,0h4.813V51.142h-4.813Zm-.065-6.59h4.942v4.322h-4.942Zm8.961,6.59h4.674V35.7a6.63,6.63,0,0,1,2.52-2.3,6.757,6.757,0,0,1,3.036-.72,5.9,5.9,0,0,1,4.538,1.6Q155,35.875,155,39.307V51.142h-4.81V39.962a3.462,3.462,0,0,0-.724-2.575,2.672,2.672,0,0,0-1.922-.685,4.345,4.345,0,0,0-1.6.275,4.276,4.276,0,0,0-1.253.788,4.2,4.2,0,0,0-.808,1.15,3.327,3.327,0,0,0-.323,1.457V51.145H138.72V33.237Zm32.561,15.544a6.461,6.461,0,0,1-5.566,2.917,6.533,6.533,0,0,1-5.637-2.539,11.674,11.674,0,0,1-1.854-7.032A12.889,12.889,0,0,1,158.8,38.3a8.926,8.926,0,0,1,1.528-2.985,6.848,6.848,0,0,1,2.439-1.938,7.845,7.845,0,0,1,5.921-.2,6.375,6.375,0,0,1,2.494,1.854V26.657h4.813v24.5h-4.671V48.787Zm-.1-6.793a9.1,9.1,0,0,0-.323-2.746,4.123,4.123,0,0,0-.943-1.68,3.324,3.324,0,0,0-1.357-.808,5.75,5.75,0,0,0-1.457-.187,3.682,3.682,0,0,0-1.5.31,3.339,3.339,0,0,0-1.237.959,4.713,4.713,0,0,0-.84,1.712,9.215,9.215,0,0,0-.31,2.539,9.2,9.2,0,0,0,.323,2.694,5.518,5.518,0,0,0,.808,1.751,2.994,2.994,0,0,0,1.2.959,3.788,3.788,0,0,0,1.479.323,4.045,4.045,0,0,0,2.817-.995,4.2,4.2,0,0,0,1.011-1.664,8.263,8.263,0,0,0,.323-2.52V42.02Zm37.606.685a11.348,11.348,0,0,1-.911,3.618,8.916,8.916,0,0,1-2.025,2.881,9.013,9.013,0,0,1-3.162,1.9,12.711,12.711,0,0,1-4.345.685,12.117,12.117,0,0,1-4.9-.927,9.626,9.626,0,0,1-3.537-2.607,11.188,11.188,0,0,1-2.148-4.07,18.14,18.14,0,0,1-.72-5.265,16.786,16.786,0,0,1,.788-5.353,11.7,11.7,0,0,1,2.268-4.047,9.789,9.789,0,0,1,3.573-2.574,12.025,12.025,0,0,1,4.748-.892,12.814,12.814,0,0,1,4.07.581,8.023,8.023,0,0,1,2.923,1.68,8.447,8.447,0,0,1,1.906,2.642,13.957,13.957,0,0,1,1.063,3.466l-5.088.653a6.938,6.938,0,0,0-1.454-3.4,4.315,4.315,0,0,0-3.424-1.234,5.088,5.088,0,0,0-4.48,2.213,10.961,10.961,0,0,0-1.534,6.26,10.342,10.342,0,0,0,1.634,6.28,5.168,5.168,0,0,0,4.38,2.2,4.517,4.517,0,0,0,3.489-1.218,6.117,6.117,0,0,0,1.389-3.482Zm7.484.485a4.443,4.443,0,0,0,1.454,3.295,5.955,5.955,0,0,0,3.8,1.034,6.9,6.9,0,0,0,2.029-.258,3.928,3.928,0,0,0,1.341-.685,2.423,2.423,0,0,0,.737-1.011,3.488,3.488,0,0,0,.223-1.269,2.7,2.7,0,0,0-.717-1.8,4.6,4.6,0,0,0-2.649-1.218l-3.2-.581a18.072,18.072,0,0,1-3.334-.892,7.7,7.7,0,0,1-2.423-1.421,5.683,5.683,0,0,1-1.492-2.145,8.038,8.038,0,0,1-.517-3.02,6.557,6.557,0,0,1,.7-3.088,6.331,6.331,0,0,1,1.958-2.229,9.3,9.3,0,0,1,3-1.357,14.98,14.98,0,0,1,3.85-.462,13.983,13.983,0,0,1,4.467.614,8,8,0,0,1,2.888,1.631,6.348,6.348,0,0,1,1.631,2.352,11.3,11.3,0,0,1,.711,2.778l-4.845.614a4.78,4.78,0,0,0-1.454-2.917,5.1,5.1,0,0,0-3.282-.892,8.443,8.443,0,0,0-2.148.226,4.323,4.323,0,0,0-1.357.581,2,2,0,0,0-.724.84,2.541,2.541,0,0,0-.207.995,2.6,2.6,0,0,0,.775,2.058,5.775,5.775,0,0,0,2.626,1.066l3.366.653a11.749,11.749,0,0,1,5.847,2.552,6.728,6.728,0,0,1,1.854,5.094,7.272,7.272,0,0,1-.6,2.972,6.654,6.654,0,0,1-1.79,2.368,8.4,8.4,0,0,1-2.969,1.58,13.878,13.878,0,0,1-4.193.565q-5.02,0-7.678-2.145c-1.773-1.434-2.733-3.553-2.907-6.467h5.188Zm22.289,0a4.443,4.443,0,0,0,1.454,3.295,5.973,5.973,0,0,0,3.8,1.034,6.948,6.948,0,0,0,2.035-.258,3.87,3.87,0,0,0,1.341-.685,2.423,2.423,0,0,0,.736-1.011,3.489,3.489,0,0,0,.223-1.269,2.713,2.713,0,0,0-.72-1.8,4.608,4.608,0,0,0-2.649-1.218l-3.2-.581a18.072,18.072,0,0,1-3.334-.892,7.7,7.7,0,0,1-2.423-1.421,5.727,5.727,0,0,1-1.5-2.145,7.975,7.975,0,0,1-.517-3.02,6.558,6.558,0,0,1,.7-3.088A6.724,6.724,0,0,1,236.5,27.83a8.665,8.665,0,0,1,3-1.357,14.98,14.98,0,0,1,3.85-.462,13.983,13.983,0,0,1,4.467.614,8.025,8.025,0,0,1,2.888,1.631,6.273,6.273,0,0,1,1.631,2.352,11.441,11.441,0,0,1,.711,2.778L248.208,34a4.78,4.78,0,0,0-1.454-2.917,5.1,5.1,0,0,0-3.282-.892,8.443,8.443,0,0,0-2.148.226,4.323,4.323,0,0,0-1.357.581,2,2,0,0,0-.724.84,2.485,2.485,0,0,0-.207.995,2.6,2.6,0,0,0,.775,2.058,5.775,5.775,0,0,0,2.629,1.066l3.4.678a11.749,11.749,0,0,1,5.847,2.552,6.728,6.728,0,0,1,1.854,5.094,7.236,7.236,0,0,1-.6,2.969,6.622,6.622,0,0,1-1.79,2.368,8.4,8.4,0,0,1-2.972,1.583,13.8,13.8,0,0,1-4.19.565q-5.02,0-7.682-2.145c-1.777-1.434-2.733-3.553-2.868-6.467Z" transform="translate(87.015 14.485)" fill="#a4add3" fill-rule="evenodd"/>
  </g>
</svg>
